PathFileType	4	(X/Y/Z)	s01c0101.trc
DataRate	CameraRate	NumFrames	NumMarkers	Units	OrigDataRate	OrigDataStartFrame	OrigNumFrames
200	200	4	47	mm	200	1000	2000
Frame#	Time	racr			lacr			c7			jug			rlel			rdr			llel			ldr			s2			lic			ric			lasi			rasi			rpsi			lpsi			rgt			lgt			rth1			rth2			rth3			rth4			rlfc			rsh1			rsh2			rsh3			rsh4			rlmal			rmmal			rcal			rtoe			rmt5			lth1			lth2			lth4			lth3			llfc			lsh1			lsh2			lsh3			lsh4			llmal			lcal			ltoe			lmt5			SBIKE			LBIKE			RBIKE			
		X1	Y1	Z1	X2	Y2	Z2	X3	Y3	Z3	X4	Y4	Z4	X5	Y5	Z5	X6	Y6	Z6	X7	Y7	Z7	X8	Y8	Z8	X9	Y9	Z9	X10	Y10	Z10	X11	Y11	Z11	X12	Y12	Z12	X13	Y13	Z13	X14	Y14	Z14	X15	Y15	Z15	X16	Y16	Z16	X17	Y17	Z17	X18	Y18	Z18	X19	Y19	Z19	X20	Y20	Z20	X21	Y21	Z21	X22	Y22	Z22	X23	Y23	Z23	X24	Y24	Z24	X25	Y25	Z25	X26	Y26	Z26	X27	Y27	Z27	X28	Y28	Z28	X29	Y29	Z29	X30	Y30	Z30	X31	Y31	Z31	X32	Y32	Z32	X33	Y33	Z33	X34	Y34	Z34	X35	Y35	Z35	X36	Y36	Z36	X37	Y37	Z37	X38	Y38	Z38	X39	Y39	Z39	X40	Y40	Z40	X41	Y41	Z41	X42	Y42	Z42	X43	Y43	Z43	X44	Y44	Z44	X45	Y45	Z45	X46	Y46	Z46	X47	Y47	Z47	
1000	5.0000	504.854241	1324.381148	-137.122202	507.238108	1310.422689	-441.108301	460.931892	1389.108569	-281.826235	460.117314	1227.015868	-282.058489	567.615423	1064.004493	-26.883731	722.866154	851.812425	-75.595533	502.165393	1032.842523	-554.432233	693.398042	878.039748	-460.466062	-67.324508	1172.012041	-229.728320	84.245497	1194.805686	-420.957279	111.030931	1171.288501	-98.260843	85.412837	1137.549731	-401.837536	132.656274	1127.455804	-130.070663	-31.634594	1210.423156	-179.650066	-48.166532	1220.103704	-284.132281	66.002719	1055.543054	-63.691594	31.429061	1063.754018	-442.612521	163.522406	967.653456	-62.778946	227.705387	915.741947	-68.889980	292.565174	853.572109	-82.588177	261.883079	955.505002	-85.699781	342.011715	756.695467	-107.427572	267.222021	669.411361	-75.809197	221.720899	598.065256	-79.048096	168.743232	527.150266	-84.719223	262.889669	570.452894	-114.226625	92.644529	441.729602	-97.023508	130.634974	425.798083	-176.052734	54.972158	462.811446	-152.904042	172.562873	217.608783	-140.460158	96.903852	293.635103	-70.694476	124.506483	968.400235	-455.528683	205.848912	937.756245	-450.773587	228.164620	987.100034	-445.193076	281.280910	897.801295	-439.060006	364.416124	820.802426	-421.427015	318.545333	712.220309	-449.791648	304.666753	626.717183	-444.890374	287.918759	543.137695	-433.213030	360.182152	619.541214	-419.030349	263.400367	418.407663	-418.777557	216.582234	377.065030	-376.476149	492.640904	386.367643	-384.376935	391.398407	350.141152	-450.438003	-227.958511	891.421642	-251.887600	-21.163010	80.167457	-453.824140	-21.203702	80.113783	-53.749890	
1001	5.0050	504.979596	1324.161380	-137.953861	507.772212	1310.010723	-441.145977	460.988924	1388.815463	-282.414962	460.320259	1226.693427	-282.237701	567.073285	1063.834352	-26.587494	722.731264	851.980462	-75.508023	502.206479	1032.760657	-555.014422	693.420936	877.813098	-460.615731	-67.486768	1171.149783	-230.697143	84.294918	1191.966682	-422.026218	110.799794	1171.560556	-99.385753	85.833373	1136.293237	-403.160896	132.693928	1127.973625	-130.857897	-31.971234	1210.173170	-180.915811	-48.237766	1218.746500	-285.455792	66.922888	1056.797168	-63.855658	31.667329	1060.995800	-442.750191	166.469114	970.860075	-62.550514	231.701607	920.231812	-69.097093	297.435309	859.466220	-82.927557	264.741010	960.640440	-86.980270	347.757742	763.476469	-108.988876	271.928154	676.983336	-76.314503	225.371122	606.336047	-79.557524	171.391361	536.194550	-85.029029	265.972930	578.149943	-114.957393	93.497888	452.264622	-97.208515	130.404942	435.567539	-176.671271	55.634856	473.708049	-153.154536	170.697210	227.328396	-140.542639	95.991973	304.210921	-70.786546	123.242840	963.849338	-455.561357	204.338323	931.498106	-450.475754	227.869120	980.169744	-445.085437	278.868223	890.071813	-438.098337	359.339675	811.177129	-420.832448	313.910998	702.469511	-449.698746	301.702678	616.745258	-444.823839	286.911786	532.783976	-432.694954	357.627320	610.548905	-419.457226	263.999693	407.169629	-418.827211	217.805951	365.867718	-376.708020	493.902145	375.543300	-384.120361	392.849123	339.071603	-450.334521	-227.948482	891.410289	-251.927640	-21.164568	80.177078	-453.847395	-21.186217	80.130009	-53.760971	
1002	5.0100	505.051476	1323.959929	-138.624693	508.210281	1309.503534	-441.237963	460.995811	1388.523135	-283.105252	460.515387	1226.320468	-282.468248	566.435972	1063.579422	-26.205734	722.601933	852.090704	-75.453241	502.335241	1032.604496	-555.698426	693.428402	877.525542	-460.757938	-67.605629	1170.348320	-231.772187	84.250433	1189.326272	-423.243316	110.782204	1171.947123	-99.562479	85.876480	1134.838501	-404.270795	132.740015	1128.492078	-131.656150	-32.272832	1209.856307	-182.313197	-48.238241	1217.599534	-286.749162	67.661144	1058.082229	-64.066223	31.957095	1058.446804	-442.968618	169.237817	974.031226	-62.649631	235.746651	924.979875	-69.435476	302.679718	865.776540	-83.299217	267.720436	965.841649	-89.010652	353.511254	770.724874	-109.910240	276.729967	684.739192	-76.788441	229.111130	614.756147	-80.058280	174.199877	545.307581	-85.509912	269.117877	586.170036	-115.756444	94.452821	463.147690	-97.847605	129.919418	445.227304	-176.767414	56.315009	484.583943	-153.503771	169.693014	237.499110	-140.651238	95.585411	314.982211	-70.897782	121.806058	959.224158	-455.667710	202.445870	925.052918	-450.182084	226.927785	973.269615	-444.750071	276.138496	882.147531	-437.127474	354.014522	801.834124	-420.190683	309.076177	692.667590	-449.890021	298.409998	606.751874	-444.681149	284.714034	522.873145	-433.415691	354.568461	601.605719	-419.951893	264.003084	396.210017	-418.872530	218.483211	354.899226	-376.859846	494.807932	364.332231	-383.724592	393.580400	327.967223	-450.262288	-227.972493	891.376536	-251.994385	-21.181333	80.166367	-453.782339	-21.193002	80.123547	-53.786783	
1003	5.0150	505.078827	1323.715995	-139.269202	508.724815	1308.976241	-441.485912	461.022590	1388.247695	-283.831078	460.648765	1225.918180	-282.729031	565.916083	1063.301760	-25.840282	722.435437	852.183752	-75.443248	502.615610	1032.443388	-556.496178	693.466331	877.158398	-460.893283	-67.638810	1169.444986	-232.934239	83.916935	1186.810588	-424.503852	110.339920	1172.455929	-100.587807	86.520611	1133.552522	-405.788093	132.718866	1129.082058	-132.495029	-32.460005	1209.530106	-183.797139	-48.067504	1216.361899	-288.145939	68.572796	1059.443693	-64.251444	32.222467	1056.068158	-443.287106	171.906118	977.419309	-62.954114	239.643687	929.924663	-69.906456	307.875519	872.522173	-84.176715	270.317323	971.527863	-90.518635	359.297591	778.159576	-110.796255	281.610295	692.620551	-77.267517	232.923105	623.268770	-80.579866	176.997052	554.670359	-86.031895	272.337236	594.270333	-116.601834	93.869676	474.869120	-97.061155	130.172663	455.357616	-177.280761	56.934339	495.439053	-153.899838	169.455438	248.005720	-140.739282	95.696570	325.898696	-71.053319	120.155145	954.560346	-455.833751	200.269534	918.550387	-449.965058	226.124750	966.602202	-443.755422	273.063062	874.082935	-436.189189	348.489059	792.596711	-419.588899	304.228338	682.844752	-450.312680	294.797574	596.901434	-444.751866	282.918370	512.523166	-431.655084	351.090865	592.718394	-420.364996	263.515278	385.466239	-418.939527	218.511770	344.305892	-377.117936	494.867895	353.374127	-383.965140	393.757424	316.907912	-450.220594	-227.991252	891.375931	-252.060578	-21.160836	80.166489	-453.812331	-21.202682	80.117764	-53.775939	
